Genre:Drama, Comedy
Language:English  http://www.imdb.com/title/tt1474889/
Source:DVD Thx.


Format : MPEG-4
Format profile : Base Media
Codec ID : isom
File size : 621 MiB
Duration : 1h 17mn
Overall bit rate : 1 127 Kbps
Movie name : The.Freebie.LiMiTED.DvdRip.H264.Feel-Free


Video
Format settings, CABAC : Yes
Format settings, ReFrames : 4 frames
Codec ID : avc1
Codec ID/Info : Advanced Video Coding
Duration : 1h 17mn
Bit rate mode : Variable
Bit rate : 1 000 Kbps
Width : 720 pixels
Height : 384 pixels
Display aspect ratio : 1.875
Frame rate mode : Constant
Frame rate : 23.976 fps
Color space : YUV
Chroma subsampling : 4:2:0
Bit depth : 8 bits
Scan type : Progressive
Bits/(Pixel*Frame) : 0.151
Stream size : 526 MiB (85%)

Audio
ID : 2
Format : AAC
Format/Info : Advanced Audio Codec
Format version : Version 4
Format profile : LC
Codec ID : 40
Duration : 1h 17mn
Bit rate mode : Variable
Bit rate : 165 Kbps
Channel(s) : 2 channels
Channel positions : Front: L R
Sampling rate : 48.0 KHz
Stream size : 91.1 MiB (15%)


Plot:
A young couple decides to give each other a night off, no questions asked.
 
http://shareimage.org/images/3b4iw9flya7kof3q5pya.png 
http://shareimage.org/images/7zzpe2swtf966u9jaqdc.png 
http://shareimage.org/images/q6qo06fomzepvllnhza.png 
http://shareimage.org/images/whtc3szmbz48ehs0kclv.png